Heat *1995*[BluRay][1080p][ENG, POL]

General information:
Country: USA
Release: 15 December 1995
Genre: Crime, Drama, Thriller 
Director: Michael Mann
Screenplay: Michael Mann
Original Music: Elliot Goldenthal 
Cinematography by: Dante Spinotti 
Duration: 2h 50mn
Language: English, Polish
Subtitles: English, Polish
Rating: 8.3/10 - 28411 votes 

Cast:
Al Pacino  ...  Lt. Vincent Hanna  
Robert De Niro  ...  Neil McCauley  
Val Kilmer  ...  Chris Shiherlis  
Jon Voight  ...  Nate  
Tom Sizemore  ...  Michael Cheritto  
Diane Venora  ...  Justine Hanna  
Amy Brenneman  ...  Eady  
Ashley Judd  ...  Charlene Shiherlis  
Mykelti Williamson  ...  Sergeant Drucker  
Wes Studi  ...  Detective Casals  
Ted Levine  ...  Bosko  
Dennis Haysbert  ...  Donald Breedan  
William Fichtner  ...  Roger Van Zant  
Natalie Portman  ...  Lauren Gustafson  
Tom Noonan  ...  Kelso  

Plot:
A Los Angeles crime saga, "Heat" focuses on the lives of two men on opposite sides of the law - one a detective; the other a thief. 

Specifications:
General
Format                           : Matroska
Overall bit rate                 : 6 935 Kbps

Video
Format                           : AVC
Format/Info                      : Advanced Video Codec
Format profile                   : High@L4.0
Format settings, CABAC           : Yes
Format settings, ReFrames        : 3 frames
Format settings, GOP             : M=4, N=29
Muxing mode                      : Container profile=Unknown@4.0
Codec ID                         : V_MPEG4/ISO/AVC
Duration                         : 2h 50mn
Bit rate                         : 5 911 Kbps
Width                            : 1 920 pixels
Height                           : 1 080 pixels
Display aspect ratio             : 16:9
Frame rate                       : 23.976 fps

Audio 1
Format                           : AC-3
Format/Info                      : Audio Coding 3
Mode extension                   : CM (complete main)
Codec ID                         : A_AC3
Bit rate mode                    : Constant
Bit rate                         : 640 Kbps
Channel(s)                       : 6 channels
Channel positions                : Front: L C R, Side: L R, LFE
Sampling rate                    : 48.0 KHz
Stream size                      : 780 MiB (9%)
Title                            : English

Audio 2
Format                           : AC-3
Format/Info                      : Audio Coding 3
Mode extension                   : CM (complete main)
Codec ID                         : A_AC3
Bit rate mode                    : Constant
Bit rate                         : 384 Kbps
Channel(s)                       : 6 channels
Channel positions                : Front: L C R, Side: L R, LFE
Sampling rate                    : 48.0 KHz
Stream size                      : 468 MiB (6%)
Title                            : Polish
Language                         : Polish

Text 1
Format                           : UTF-8
Codec ID                         : S_TEXT/UTF8
Codec ID/Info                    : UTF-8 Plain Text
Title                            : English

Text 2
Format                           : UTF-8
Codec ID                         : S_TEXT/UTF8
Codec ID/Info                    : UTF-8 Plain Text
Title                            : Polish
Language                         : Polish
